<svg id="Layer_1" data-name="Layer 1" xmlns="http://www.w3.org/2000/svg" viewBox="0 0 131.59 68.13"><defs><style>.cls-1{fill:#d6b982;}</style></defs><path class="cls-1" d="M269.29,178c-.35.38-.61.68-.89,1q-8.07,8.35-16.15,16.69L240.51,207.8a7.71,7.71,0,0,0-.85,1,3.84,3.84,0,0,0,.58,5c.31.3.66.56,1.19,1-.7.06-1.17.13-1.64.13-6.64,0-13.29,0-19.93,0a4,4,0,0,1-4.11-2.49,3.6,3.6,0,0,1,.31-3.61,11.76,11.76,0,0,1,1.23-1.51q16.78-17.35,33.59-34.69c1.08-1.11,2.13-2.26,3.27-3.3a6.59,6.59,0,0,1,2.13-1.37c1.8-.68,3.25.13,4.5,1.37,2.64,2.61,5.25,5.24,7.87,7.87C268.85,177.46,269,177.69,269.29,178Z" transform="translate(-215.41 -146.87)"/><path class="cls-1" d="M292.5,177.69c.3-.36.49-.62.71-.85,2.39-2.46,4.75-4.94,7.17-7.36a6.69,6.69,0,0,1,2.1-1.43c1.77-.72,3.26,0,4.53,1.24,1.64,1.59,3.24,3.22,4.85,4.83q16.65,16.65,33.28,33.3a11.2,11.2,0,0,1,1.19,1.39,3.91,3.91,0,0,1-2.47,6,12.12,12.12,0,0,1-1.69.18H323.22c-.43,0-.86-.06-1.29-.09l-.18-.32a6,6,0,0,0,.69-.42,3.89,3.89,0,0,0,.41-6c-1.34-1.42-2.75-2.78-4.14-4.16q-12.57-12.57-25.15-25.15C293.21,178.51,292.9,178.13,292.5,177.69Z" transform="translate(-215.41 -146.87)"/><path class="cls-1" d="M281,189.69c.61.58,1.09,1,1.55,1.48q8.18,8.16,16.33,16.36a6.54,6.54,0,0,1,1.53,2.17,3.85,3.85,0,0,1-3,5.14c-.56,0-1.13.15-1.69.15H266.82a9.64,9.64,0,0,1-1.93-.19,3.85,3.85,0,0,1-2.49-5.9,8.49,8.49,0,0,1,.89-1.16l16.44-16.94C280.09,190.43,280.51,190.12,281,189.69Z" transform="translate(-215.41 -146.87)"/><path class="cls-1" d="M286.5,158.13c-1.48,1.74-3.1,3.39-4.75,5.15l-5.16-5.16c1.6-1.73,3.11-3.44,4.71-5A41.19,41.19,0,0,1,286.5,158.13Z" transform="translate(-215.41 -146.87)"/><path class="cls-1" d="M263.16,162.94l-4.5-4.43c1.41-1.59,2.9-3.16,4.43-4.77a2.77,2.77,0,0,1,.49.32c1.27,1.24,2.52,2.49,3.78,3.75a3.58,3.58,0,0,1,.24.34Z" transform="translate(-215.41 -146.87)"/><path class="cls-1" d="M300.54,162.48,296.09,158c1.24-1.39,2.57-2.85,4-4.31,1.56,1.44,3,2.92,4.48,4.42Z" transform="translate(-215.41 -146.87)"/><path class="cls-1" d="M258.21,149.13l-4.49,4.49a4.12,4.12,0,0,1-.41-.32c-.74-.73-1.46-1.48-2.22-2.2s-1.28-1.12-1.92-1.68c-.14-.11-.27-.24-.47-.43a14.63,14.63,0,0,1,1.43-.88c1-.44,2-.81,3-1.19a1.06,1.06,0,0,1,.61,0A14.91,14.91,0,0,1,258.21,149.13Z" transform="translate(-215.41 -146.87)"/><path class="cls-1" d="M309,153.44l-4.32-4.1a6.5,6.5,0,0,1,1.41-1c1-.5,2.07-.94,3.12-1.37a1.12,1.12,0,0,1,.68,0,15.89,15.89,0,0,1,3.6,1.66l.29.24A30.16,30.16,0,0,0,309,153.44Z" transform="translate(-215.41 -146.87)"/><path class="cls-1" d="M276.67,148.85l-4.74,4.55-4.23-4a5,5,0,0,1,1.56-1.07c.93-.47,1.9-.85,2.86-1.24a1.21,1.21,0,0,1,.75-.05,15,15,0,0,1,3.72,1.73S276.64,148.81,276.67,148.85Z" transform="translate(-215.41 -146.87)"/><path class="cls-1" d="M295.11,149.16l-4,4a38.31,38.31,0,0,0-4.91-4.39,10.84,10.84,0,0,1,2.35-1.31l.53-.19a2.56,2.56,0,0,1,2.63,0,14.41,14.41,0,0,1,3.14,1.63A1.86,1.86,0,0,1,295.11,149.16Z" transform="translate(-215.41 -146.87)"/></svg>